<?xml version="1.0" encoding="UTF-8" standalone="no"?>
<svg
   width="142.854"
   height="174.90939"
   version="1.1"
   id="svg4"
   sodipodi:docname="Greek_lc_tau.svg"
   xmlns:inkscape="http://www.inkscape.org/namespaces/inkscape"
   xmlns:sodipodi="http://sodipodi.sourceforge.net/DTD/sodipodi-0.dtd"
   xmlns="http://www.w3.org/2000/svg"
   xmlns:svg="http://www.w3.org/2000/svg">
  <defs
     id="defs8" />
  <sodipodi:namedview
     id="namedview6"
     pagecolor="#ffffff"
     bordercolor="#000000"
     borderopacity="0.25"
     inkscape:showpageshadow="2"
     inkscape:pageopacity="0.0"
     inkscape:pagecheckerboard="0"
     inkscape:deskcolor="#d1d1d1"
     showgrid="false" />
  <path
     d="m 89.121,27.0517 -5.3726,53.177 q -1.2972,13.896 -1.2972,27.793 0,26.496 6.1147,32.24 6.2997,5.5587 14.267,5.5587 17.787,0 21.123,-22.42 h 6.8557 q -6.1147,51.509 -40.948,51.509 -36.501,0 -36.501,-41.874 0,-21.122 4.0749,-52.621 l 6.8557,-53.362 h -18.343 q -15.193,0 -23.716,5.1882 -8.3378,5.0027 -15.564,20.381 H 0 Q 5.9292,32.2406 14.081,20.3816 22.2338,8.3376 29.645,4.2616 37.0567,0 51.694,0 h 91.16 v 27.052 z"
     id="path2" />
</svg>
