<?xml version="1.0" encoding="UTF-8" standalone="no"?>
<svg
   width="142.854"
   height="174.90939"
   version="1.1"
   id="svg4"
   sodipodi:docname="favicon.svg"
   inkscape:export-filename="logo.svg"
   inkscape:export-xdpi="96"
   inkscape:export-ydpi="96"
   xmlns:inkscape="http://www.inkscape.org/namespaces/inkscape"
   xmlns:sodipodi="http://sodipodi.sourceforge.net/DTD/sodipodi-0.dtd"
   xmlns="http://www.w3.org/2000/svg"
   xmlns:svg="http://www.w3.org/2000/svg">
  <defs
     id="defs8">
    <filter
       style="color-interpolation-filters:sRGB"
       inkscape:label="Invert"
       id="filter1312"
       x="0"
       y="0"
       width="1"
       height="1">
      <feColorMatrix
         values="-1 0 0 0 1 0 -1 0 0 1 0 0 -1 0 1 0.21 0.72 0.07 0.61366 0 "
         result="fbSourceGraphic"
         id="feColorMatrix1310" />
      <feColorMatrix
         result="fbSourceGraphicAlpha"
         in="fbSourceGraphic"
         values="0 0 0 -1 0 0 0 0 -1 0 0 0 0 -1 0 0 0 0 1 0"
         id="feColorMatrix1314" />
      <feColorMatrix
         id="feColorMatrix1316"
         values="-1 0 0 0 1 0 -1 0 0 1 0 0 -1 0 1 0.21 0.72 0.07 0.61366 0 "
         result="fbSourceGraphic"
         in="fbSourceGraphic" />
      <feColorMatrix
         result="fbSourceGraphicAlpha"
         in="fbSourceGraphic"
         values="0 0 0 -1 0 0 0 0 -1 0 0 0 0 -1 0 0 0 0 1 0"
         id="feColorMatrix1318" />
      <feColorMatrix
         id="feColorMatrix1320"
         values="-1 0 0 0 1 0 -1 0 0 1 0 0 -1 0 1 0.21 0.72 0.07 0.61366 0 "
         result="color2"
         in="fbSourceGraphic" />
    </filter>
  </defs>
  <sodipodi:namedview
     id="namedview6"
     pagecolor="#ffffff"
     bordercolor="#000000"
     borderopacity="0.25"
     inkscape:showpageshadow="2"
     inkscape:pageopacity="0.0"
     inkscape:pagecheckerboard="0"
     inkscape:deskcolor="#d1d1d1"
     showgrid="false" />
  <path
     d="m 89.121,27.0517 -5.3726,53.177 q -1.2972,13.896 -1.2972,27.793 0,26.496 6.1147,32.24 6.2997,5.5587 14.267,5.5587 17.787,0 21.123,-22.42 h 6.8557 q -6.1147,51.509 -40.948,51.509 -36.501,0 -36.501,-41.874 0,-21.122 4.0749,-52.621 l 6.8557,-53.362 h -18.343 q -15.193,0 -23.716,5.1882 -8.3378,5.0027 -15.564,20.381 H 0 Q 5.9292,32.2406 14.081,20.3816 22.2338,8.3376 29.645,4.2616 37.0567,0 51.694,0 h 91.16 v 27.052 z"
     id="path2" />
  <path
     style="fill:#803300;stroke-width:0.409145;filter:url(#filter1312)"
     d="m 82.009839,174.13849 c -16.784551,-2.74595 -25.880977,-13.44851 -28.022846,-32.97078 -0.91745,-8.3622 -0.06228,-27.83057 2.076357,-47.268983 0.699719,-6.359849 7.887522,-63.358676 8.324153,-66.009995 l 0.15743,-0.955974 -14.37238,0.18435 C 34.543193,27.317581 32.179439,27.606197 26.160291,30.049021 19.123234,32.904956 13.119583,39.278789 8.1424291,49.177856 L 6.537184,52.370532 H 3.4731643 c -1.6852107,0 -3.06401952,-0.08986 -3.06401952,-0.199679 0,-0.576453 2.78201222,-8.774699 4.30570502,-12.688382 C 9.8070162,26.402976 15.759511,16.912469 23.57978,9.4047046 28.665876,4.521853 32.715127,2.5048333 40.505333,0.97371887 43.605407,0.36441981 49.348036,0.27142624 93.387296,0.11737189 L 142.79153,-0.0554497 V 13.474053 27.003555 h -27.00356 c -24.442978,0 -27.003553,0.06187 -27.003553,0.652457 0,0.35885 -1.282877,13.384998 -2.850839,28.946992 -3.250127,32.25744 -3.916047,42.755711 -3.546565,55.911806 0.37143,13.22553 1.517477,20.32396 4.051192,25.09241 0.965107,1.81632 1.893616,2.83186 3.894833,4.2599 9.884212,7.05322 23.485812,4.83639 29.327382,-4.77987 1.54866,-2.54937 3.68058,-8.54028 4.1216,-11.58209 l 0.28176,-1.94344 h 3.26509 3.2651 l -0.27374,2.14801 c -0.15056,1.18141 -0.8052,4.83167 -1.45476,8.11169 -4.42524,22.34573 -14.31118,35.74404 -29.288566,39.69452 -4.113742,1.08506 -12.848043,1.39459 -17.567065,0.62255 z"
     id="path1032" />
</svg>
