<svg width="528" height="261" viewBox="0 0 528 261" fill="none" xmlns="http://www.w3.org/2000/svg"><mask id="icon_svg__b" style="mask-type:alpha" maskUnits="userSpaceOnUse" x="0" y="0" width="528" height="261"><path fill="url(#icon_svg__a)" d="M0 0h528v261H0z"/></mask><g mask="url(#icon_svg__b)"><g opacity=".7"><mask id="icon_svg__d" style="mask-type:alpha" maskUnits="userSpaceOnUse" x="0" y="0" width="528" height="261"><path fill="url(#icon_svg__c)" d="M0 0h528v261H0z"/></mask><g mask="url(#icon_svg__d)" stroke="#E0E5EB" stroke-width=".623"><path d="M13.173-174.723v623.155M69.243-174.723v623.155M125.312-174.723v623.155M181.383-174.723v623.155M237.452-174.723v623.155M293.523-174.723v623.155M349.593-174.723v623.155M405.663-174.723v623.155M461.733-174.723v623.155M517.803-174.723v623.155M931.783 52.672h-1246M931.783 108.742h-1246M931.783 164.812h-1246M931.783 220.882h-1246"/></g></g><path fill="#fff" d="M182 53h167.337v167.337H182z"/></g><g clip-path="url(#icon_svg__e)" stroke="#141A1F" stroke-width="3.97"><path d="m258.346 151.797-7.888-13.882 7.888-13.882h15.722l7.889 13.882-7.889 13.882h-15.722Z" fill="#E83030"/><path d="m258.346 185.382-7.888-13.882 7.888-13.882h15.722l7.889 13.882-7.889 13.882h-15.722Z" fill="#6B91C7"/><path d="m258.346 118.204-7.888-13.883 7.888-13.882h15.722l7.889 13.882-7.889 13.883h-15.722Z" fill="#F9C31F"/><path d="m287.487 168.589-7.889-13.882 7.889-13.882h15.722l7.888 13.882-7.888 13.882h-15.722Z" fill="#795AA5"/><path d="m287.487 134.993-7.889-13.882 7.889-13.882h15.722l7.888 13.882-7.888 13.882h-15.722Z" fill="#F17423"/><path d="m229.171 168.583-7.888-13.882 7.888-13.882h15.722l7.889 13.882-7.889 13.882h-15.722Z" fill="#97C639"/><path d="m229.171 134.993-7.888-13.882 7.888-13.882h15.722l7.889 13.882-7.889 13.882h-15.722Z" fill="#C9DB70"/></g><defs><radialGradient id="icon_svg__a" cx="0" cy="0" r="1" gradientUnits="userSpaceOnUse" gradientTransform="matrix(0 130.5 -264 0 264 130.5)"><stop offset=".734" stop-color="#D9D9D9"/><stop offset="1" stop-color="#D9D9D9" stop-opacity="0"/></radialGradient><radialGradient id="icon_svg__c" cx="0" cy="0" r="1" gradientUnits="userSpaceOnUse" gradientTransform="matrix(0 174.935 -353.892 0 264 130.5)"><stop offset=".564" stop-color="#F6F7F8"/><stop offset=".758" stop-color="#F6F7F8" stop-opacity="0"/></radialGradient><clipPath id="icon_svg__e"><path fill="#fff" transform="translate(217 87)" d="M0 0h98v102H0z"/></clipPath></defs></svg>